<?xml version="1.0" encoding="utf-8"?>
<!-- Generator: Adobe Illustrator 29.4.0, SVG Export Plug-In . SVG Version: 9.03 Build 0)  -->
<svg version="1.1" baseProfile="basic" id="Livello_1"
	 xmlns="http://www.w3.org/2000/svg" xmlns:xlink="http://www.w3.org/1999/xlink" x="0px" y="0px" viewBox="0 0 982.4 381.5"
	 xml:space="preserve">
<style type="text/css">
	.st0{fill:#FFFFFF;}
	.st1{opacity:0.5;fill:#FFFFFF;}
</style>
<g>
	<path class="st0" d="M274,59v245h39V59H274z M814,59h-40v245h40V200.5c0-4.5,6.6-16.6,10-20c10.7-10.9,37.5-15,45.2,0.9
		c0.5,1.1,2.8,7.6,2.8,8.2V302h40V200.5c-1.7-13.8-3.3-27.3-10.6-39.4c-17.9-29.8-61.2-34.3-87.4-13.1V59z M243.6,270.6
		c1.4-1.5,5.9-5.9,5-7.6l-24.2-23.9c-14.5,13.2-28.4,22.4-48.2,25.6c-62.5,10.2-100-46.5-85.9-103.9C106,97.1,184.8,85.5,225.5,133
		c6.2-8.1,19.1-16.5,24.6-24.5c0.6-0.9,1.4-1.4,0.5-2.5c-20.8-20.6-47.3-35.8-77.1-38C24.3,57,8.6,270.3,134.8,300.7
		C172.3,309.7,217,299,243.6,270.6z M569,78h-40v60h-29v38h29v128h40V176h29v-38h-29V78z M755,277l-27.5-28
		c-29.4,31.1-81.7,18.1-84.5-27.5c-3.1-49.5,53.2-67.2,84.5-33.6l27-26c-29.3-26.2-68.4-35.7-104.9-17.8
		c-83.4,40.8-42.9,180.7,60.2,157.2C728.3,297.1,740,287.6,755,277z M382,138h-39v103.5c0,6.2,4.9,22.3,7.8,28.2
		c18.3,37.5,69.4,44.7,101.2,20.3v14h39V138h-39v90.5c0,3.8-2.8,14.8-4.5,18.5c-11.7,25.3-59.5,31.4-64.3-2.7l-1.2-8.8V138z
		 M715,219.4c0-15.1-12.2-27.3-27.3-27.3s-27.3,12.2-27.3,27.3s12.2,27.3,27.3,27.3S715,234.5,715,219.4z"/>
	<g>
		<g>
			<g>
				<path class="st0" d="M382,138v97.5l1.2,8.8c4.8,34.1,52.6,28,64.3,2.7c1.7-3.7,4.5-14.7,4.5-18.5V138h39v166h-39v-14
					c-31.7,24.3-82.9,17.1-101.2-20.3c-2.9-5.9-7.8-21.9-7.8-28.2V138H382z"/>
				<polygon class="st0" points="569,78 569,138 598,138 598,176 569,176 569,304 529,304 529,176 500,176 500,138 529,138 529,78 
									"/>
			</g>
			<g>
				<path class="st0" d="M243.6,270.6c-26.6,28.4-71.3,39.2-108.8,30.1C8.6,270.3,24.3,57,173.5,68c29.8,2.2,56.3,17.4,77.1,38
					c0.9,1.2,0.1,1.6-0.5,2.5c-5.4,7.9-18.4,16.4-24.6,24.5C184.8,85.5,106,97.1,90.3,160.8c-14.1,57.4,23.4,114.1,85.9,103.9
					c19.8-3.2,33.7-12.4,48.2-25.6l24.2,23.9C249.4,264.7,245,269.1,243.6,270.6z"/>
				<rect x="274" y="59" class="st0" width="39" height="245"/>
			</g>
		</g>
		<g>
			<path class="st0" d="M814,59v89c26.2-21.2,69.5-16.7,87.4,13.1c7.3,12.1,8.9,25.6,10.6,39.4V302h-40V189.5c0-0.6-2.3-7.1-2.8-8.2
				c-7.7-15.8-34.6-11.8-45.2-0.9c-3.4,3.4-10,15.6-10,20V304h-40V59H814z"/>
			<path class="st0" d="M755,277c-15,10.7-26.7,20.1-45.2,24.3c-103.1,23.5-143.6-116.4-60.2-157.2c36.5-17.9,75.5-8.4,104.9,17.8
				l-27,26c-31.4-33.6-87.7-15.9-84.5,33.6c2.9,45.6,55.1,58.6,84.5,27.5L755,277z"/>
			<circle class="st1" cx="687.7" cy="219.4" r="27.3"/>
		</g>
	</g>
</g>
</svg>
