<?xml version="1.0" encoding="utf-8"?>
<!-- Generator: Adobe Illustrator 29.4.0, SVG Export Plug-In . SVG Version: 9.03 Build 0)  -->
<svg version="1.1" baseProfile="basic" id="Livello_1"
	 xmlns="http://www.w3.org/2000/svg" xmlns:xlink="http://www.w3.org/1999/xlink" x="0px" y="0px" viewBox="0 0 982.4 381.5"
	 xml:space="preserve">
<style type="text/css">
	.st0{opacity:0.5;fill:#FFFFFF;}
	.st1{fill:#FFFFFF;}
</style>
<g>
	<polygon class="st0" points="948.2,226.9 927.2,226.9 927.2,189.9 889.2,189.9 889.2,226.9 867.2,226.9 867.2,132.9 889.2,132.9 
		889.2,169.9 927.2,169.9 927.2,132.9 948.2,132.9 	"/>
	<path class="st1" d="M535.2,188.9v-56h21v94h-17.5c-16.3-18.6-30-39.7-46.5-58v58h-21v-94h19.5L535.2,188.9z"/>
	<path class="st0" d="M629.7,132.9c34.8,3.9,40.2,47.1,9.5,61.5l22,32.5h-24.5c-3.1-3.2-19.2-30-21-30h-15.5v30h-22v-94
		C594.6,134.2,613.7,131.1,629.7,132.9z M600.2,177.9h25.5c1,0,7.6-3.4,8.5-4.5c3.6-4,3.9-11.6,1-16c-1.2-1.8-6.6-5.5-8.5-5.5h-26.5
		V177.9z"/>
	<path class="st1" d="M76.7,132.9c63,5.8,58.2,95-4,95H34.2v-95C47.9,133.8,63.2,131.7,76.7,132.9z M55.2,207.9h21.5
		c1.4,0,9.2-3.2,10.8-4.2c16.5-10.4,15.8-39.1-1.5-48.2c-1.9-1-8.7-3.6-10.4-3.6H55.2V207.9z"/>
	<path class="st1" d="M452.2,212.4c-0.8,3.8-12.6,10.1-16.3,11.7c-32.9,13.9-73.2-2.4-75.5-40.8c-2.9-47.4,54.4-68,87.9-38.9
		L435.7,160c-5.3-1.8-9.1-5.7-14.6-7.4c-51.6-15.6-50.8,73.8,3.2,55.8c10.5-3.5,6.4-8.2,7-17.5c-0.4-0.5-1.3,1-1.5,1h-18
		c-0.1,0-1.5-1.4-1.5-1.5v-16c0-0.1,1.4-1.5,1.5-1.5h38c0.3,0,1.5,1.3,2.5,1v38.5H452.2z"/>
	<path class="st1" d="M212.2,132.9v19h-50v19c0.7,0.3,1.2-1,1.5-1h42.5c1.6,6.1,1.6,12.9,0,19h-45c-0.3,0.7,1,1.2,1,1.5v16
		c0,0.3-1.3,0.8-1,1.5h52v17.5c0,0.1-1.4,1.5-1.5,1.5h-70c-0.1,0-1.5-1.4-1.5-1.5v-92.5H212.2z"/>
	<path class="st0" d="M759.2,131.9v62.5c0,2.4-3.5,11.7-4.8,14.2c-16.7,31.2-78.2,22.6-78.2-14.2v-61.5h21v54.5c0,3.2,2.9,11.3,5,14
		c7.7,9.9,27.5,8.5,33.2-2.8c0.6-1.3,2.8-8.2,2.8-9.2v-57.5H759.2z"/>
	<path class="st0" d="M801.5,163.6c4.3,4.2,25.7,7.8,33.1,11.4c23.8,11.5,19.4,43-4.8,50.9c-13,4.3-30,1.8-42.2-3.9
		c-2.4-1.1-11.9-6.4-12.9-8.2c-0.8-1.4-0.2-1.5,0.5-2.6c1.2-1.7,10.6-12.1,11.7-12.3c9.8,6.1,26.3,15.2,37.7,8.7
		c6.5-3.7,5.7-10.6-0.7-14.1c-13-7.1-40.4-5.9-45-25c-8.5-35.2,31-43.3,56.7-32.7c2.2,0.9,10.3,5.1,11.2,6.9
		c1.2,2.3-7.9,13.8-10.3,15.9c-9.6-4.3-17.6-9.4-28.7-7.8C801.3,151.9,796.2,158.4,801.5,163.6z"/>
	<path class="st1" d="M255,132.2c14.8-2,31.7,1.7,43.2,11.3l-10.7,15.3c-7.1-2.8-12.9-7.1-20.8-7.9c-6.6-0.6-19.1,0.6-16.1,10
		c2.2,6.9,23,9.6,29.8,12.2c15.4,5.8,24,16.8,19.3,33.8c-8.2,29.7-56.6,23.9-74.5,6.3l12.6-14.3c9.4,6,20,12.4,31.8,10.8
		c5.2-0.7,12-4.8,10.2-10.9c-2.4-8-28.9-11.3-37.3-15.8C218.2,170.1,228.2,135.8,255,132.2z"/>
	<rect x="319.2" y="132.9" class="st1" width="22" height="94"/>
</g>
</svg>
