<?xml version="1.0" encoding="UTF-8"?>
<svg id="Livello_1" data-name="Livello 1" xmlns="http://www.w3.org/2000/svg" viewBox="0 0 322.57 110.07">
  <defs>
    <style>
      .cls-1 {
        fill: #010101;
      }
    </style>
  </defs>
  <path class="cls-1" d="M39,94.49c-3.92-1.31-7.25-3.1-9.99-5.37-2.74-2.27-4.91-4.97-6.5-8.09-1.59-3.12-2.66-6.48-3.2-10.1h14.62c.47,2.26,1.18,4.28,2.15,6.07.97,1.79,2.24,3.3,3.81,4.54,1.58,1.24,3.45,2.19,5.62,2.85,2.17.66,4.67.99,7.5.99,1.61,0,3.13-.1,4.57-.3,1.43-.2,2.74-.5,3.92-.91,1.18-.41,2.27-.92,3.25-1.53.98-.61,1.81-1.32,2.47-2.15.66-.82,1.18-1.75,1.56-2.77.38-1.02.56-2.14.56-3.36v-.11c0-1.97-.37-3.63-1.1-4.97-.73-1.34-1.76-2.47-3.09-3.39-1.33-.91-2.91-1.68-4.76-2.31-1.85-.63-3.88-1.19-6.1-1.69l-10.96-2.47c-3.4-.75-6.48-1.76-9.24-3.04-2.76-1.27-5.1-2.84-7.04-4.7-1.93-1.86-3.43-4.06-4.49-6.58-1.06-2.53-1.59-5.44-1.59-8.73v-.16c0-2.18.34-4.25,1.02-6.21.68-1.95,1.64-3.74,2.87-5.37,1.24-1.63,2.73-3.08,4.49-4.35,1.75-1.27,3.73-2.36,5.91-3.28,2.18-.91,4.57-1.6,7.15-2.07,2.58-.46,5.3-.7,8.17-.7,4.41,0,8.36.53,11.85,1.59,3.49,1.06,6.52,2.58,9.08,4.57,2.56,1.99,4.62,4.42,6.18,7.28,1.56,2.87,2.61,6.11,3.14,9.73h-14.62c-.5-2.15-1.23-3.98-2.18-5.48-.95-1.5-2.11-2.74-3.49-3.71-1.38-.97-2.96-1.68-4.73-2.15-1.77-.46-3.75-.7-5.94-.7-1.36,0-2.68.1-3.95.3-1.27.2-2.44.49-3.52.89-1.07.39-2.04.89-2.9,1.48s-1.6,1.26-2.23,2.02c-.63.75-1.11,1.6-1.45,2.55-.34.95-.51,1.98-.51,3.09v.11c0,1.5.24,2.85.73,4.03.48,1.18,1.22,2.23,2.2,3.14.98.91,2.2,1.71,3.65,2.39,1.45.68,3.12,1.24,5.02,1.67l11.02,2.53c4.01.93,7.62,1.99,10.83,3.17,3.21,1.18,5.9,2.65,8.09,4.41,2.18,1.76,3.87,3.89,5.05,6.39,1.18,2.51,1.77,5.53,1.77,9.08v.16c0,2.54-.35,4.91-1.05,7.09-.7,2.19-1.7,4.16-3.01,5.91-1.31,1.76-2.88,3.3-4.73,4.62-1.85,1.33-3.92,2.44-6.23,3.36-2.31.91-4.82,1.59-7.52,2.04-2.71.45-5.54.67-8.52.67-5.16,0-9.7-.65-13.62-1.96Z"/>
  <path class="cls-1" d="M99.15,93.85c-2.51-.66-4.54-1.71-6.1-3.14-1.56-1.43-2.7-3.29-3.41-5.56-.72-2.27-1.07-5.04-1.07-8.3v-26.92h-8.38v-11.07h8.38v-14.78h13.65v14.78h12.47v11.07h-12.47v25.04c0,1.83.19,3.31.56,4.46.38,1.15.93,2.04,1.67,2.69.73.65,1.67,1.08,2.79,1.32,1.13.23,2.45.35,3.95.35h3.17v11.07h-6.07c-3.58,0-6.63-.33-9.14-.99Z"/>
  <path class="cls-1" d="M128.17,94.76c-2.54-1.09-4.65-2.66-6.31-4.7-1.67-2.04-2.92-4.52-3.76-7.44-.84-2.92-1.26-6.21-1.26-9.86v-33.91h13.65v31.11c0,2.51.24,4.73.73,6.66.48,1.93,1.22,3.56,2.2,4.86.98,1.31,2.22,2.29,3.71,2.96,1.49.66,3.23.99,5.24.99s3.7-.33,5.19-.99c1.49-.66,2.72-1.65,3.71-2.96.98-1.31,1.72-2.93,2.2-4.86.48-1.93.73-4.16.73-6.66v-31.11h13.59v55.99h-13.59v-6.72c-.93,1.22-1.96,2.35-3.09,3.39-1.13,1.04-2.38,1.92-3.76,2.63-1.38.72-2.91,1.27-4.59,1.67-1.68.39-3.55.59-5.59.59-3.44,0-6.43-.55-8.97-1.64Z"/>
  <path class="cls-1" d="M189.59,95.57c-2.19-.59-4.23-1.46-6.13-2.61-1.9-1.15-3.65-2.56-5.24-4.25-1.59-1.68-2.95-3.62-4.06-5.8-1.11-2.18-1.98-4.62-2.61-7.31-.63-2.69-.94-5.59-.94-8.7v-.11c0-3.15.31-6.06.94-8.73.63-2.67,1.49-5.1,2.61-7.28,1.11-2.18,2.46-4.12,4.06-5.8,1.59-1.68,3.34-3.1,5.24-4.24,1.9-1.15,3.94-2.02,6.13-2.61,2.18-.59,4.46-.89,6.82-.89,2.01,0,3.89.21,5.64.64,1.75.43,3.37,1.03,4.84,1.8,1.47.77,2.79,1.68,3.98,2.71,1.18,1.04,2.18,2.19,3.01,3.44V15.85h13.59v78.99h-13.59v-6.99c-.82,1.22-1.83,2.36-3.01,3.41-1.18,1.06-2.51,1.97-3.98,2.74-1.47.77-3.08,1.37-4.84,1.8-1.76.43-3.64.65-5.64.65-2.36,0-4.64-.3-6.82-.89ZM203.69,85.28c1.27-.36,2.45-.89,3.55-1.61,1.09-.72,2.08-1.6,2.96-2.66.88-1.06,1.61-2.28,2.2-3.68s1.06-2.96,1.4-4.7c.34-1.74.51-3.64.51-5.72v-.11c0-2.08-.17-3.98-.51-5.72-.34-1.74-.81-3.3-1.4-4.7s-1.33-2.62-2.2-3.68c-.88-1.06-1.86-1.94-2.96-2.66-1.09-.72-2.28-1.25-3.55-1.61-1.27-.36-2.62-.54-4.06-.54s-2.79.18-4.08.54c-1.29.36-2.47.9-3.55,1.61-1.07.72-2.05,1.6-2.93,2.66-.88,1.06-1.61,2.28-2.2,3.68s-1.06,2.96-1.4,4.7c-.34,1.74-.51,3.65-.51,5.72v.11c0,2.08.17,3.99.51,5.72.34,1.74.81,3.3,1.4,4.7s1.33,2.62,2.2,3.68c.88,1.06,1.85,1.94,2.93,2.66,1.07.72,2.26,1.25,3.55,1.61,1.29.36,2.65.54,4.08.54s2.78-.18,4.06-.54Z"/>
  <path class="cls-1" d="M233.92,15.85h13.65v13.43h-13.65v-13.43ZM233.92,38.85h13.65v55.99h-13.65v-55.99Z"/>
  <path class="cls-1" d="M267.42,94.25c-3.6-1.47-6.67-3.51-9.22-6.13-2.54-2.61-4.5-5.75-5.86-9.4-1.36-3.65-2.04-7.63-2.04-11.93v-.11c0-4.33.68-8.31,2.04-11.93,1.36-3.62,3.31-6.74,5.86-9.38s5.62-4.67,9.22-6.13c3.6-1.45,7.66-2.18,12.17-2.18s8.53.73,12.14,2.18c3.62,1.45,6.69,3.49,9.22,6.13s4.47,5.76,5.83,9.38c1.36,3.62,2.04,7.6,2.04,11.93v.11c0,4.3-.68,8.27-2.04,11.93-1.36,3.65-3.3,6.79-5.83,9.4-2.53,2.62-5.6,4.66-9.22,6.13-3.62,1.47-7.67,2.2-12.14,2.2s-8.57-.73-12.17-2.2ZM286.1,84.37c1.86-.9,3.42-2.18,4.67-3.84,1.25-1.67,2.2-3.65,2.85-5.96.65-2.31.97-4.9.97-7.76v-.11c0-2.87-.32-5.45-.97-7.76-.64-2.31-1.59-4.29-2.85-5.94-1.25-1.65-2.81-2.92-4.67-3.82-1.86-.9-4.03-1.34-6.5-1.34s-4.65.45-6.53,1.34c-1.88.9-3.45,2.17-4.7,3.82s-2.19,3.63-2.82,5.94c-.63,2.31-.94,4.9-.94,7.76v.11c0,2.87.31,5.45.94,7.76.63,2.31,1.57,4.3,2.82,5.96,1.25,1.67,2.82,2.95,4.7,3.84,1.88.9,4.06,1.34,6.53,1.34s4.64-.45,6.5-1.34Z"/>
</svg>