<?xml version="1.0" encoding="UTF-8"?>
<svg id="Livello_1" data-name="Livello 1" xmlns="http://www.w3.org/2000/svg" viewBox="0 0 268.57 110.07">
  <defs>
    <style>
      .cls-1 {
        fill: #010101;
      }
    </style>
  </defs>
  <path class="cls-1" d="M21.45,14.85h53.25v11.98h-39.07v21.12h35.14v11.98h-35.14v21.92h39.23v11.98H21.45V14.85Z"/>
  <path class="cls-1" d="M91.14,92.85c-2.51-.66-4.54-1.71-6.1-3.14-1.56-1.43-2.7-3.29-3.41-5.56-.72-2.27-1.07-5.04-1.07-8.3v-26.92h-8.38v-11.07h8.38v-14.78h13.65v14.78h12.47v11.07h-12.47v25.04c0,1.83.19,3.31.56,4.46.38,1.15.93,2.04,1.67,2.69.73.65,1.67,1.08,2.79,1.32,1.13.23,2.45.35,3.95.35h3.17v11.07h-6.07c-3.58,0-6.63-.33-9.14-.99Z"/>
  <path class="cls-1" d="M125.75,94.43c-2.65-.68-5.06-1.65-7.23-2.9-2.17-1.25-4.08-2.76-5.75-4.51-1.67-1.75-3.08-3.73-4.25-5.94-1.16-2.2-2.04-4.6-2.63-7.2-.59-2.6-.89-5.35-.89-8.25v-.11c0-2.97.33-5.77.99-8.38.66-2.61,1.6-5.01,2.82-7.2,1.22-2.18,2.69-4.13,4.43-5.83,1.74-1.7,3.68-3.15,5.83-4.35,2.15-1.2,4.47-2.11,6.96-2.74,2.49-.63,5.11-.94,7.87-.94,3.19,0,6.13.38,8.81,1.13,2.69.75,5.1,1.83,7.25,3.22,2.15,1.4,4.04,3.08,5.67,5.05,1.63,1.97,2.98,4.2,4.06,6.69,1.07,2.49,1.85,5.19,2.34,8.11.48,2.92.67,5.99.56,9.22v.05h-47.07l-.11-9.83h33.05v-.05c-.07-1.33-.28-2.58-.62-3.76-.34-1.18-.82-2.27-1.42-3.28-.61-1-1.33-1.92-2.15-2.74-.82-.82-1.76-1.51-2.82-2.07-1.06-.55-2.21-.99-3.47-1.32-1.25-.32-2.62-.48-4.08-.48-2.26,0-4.33.39-6.21,1.16-1.88.77-3.48,1.95-4.81,3.55-1.33,1.59-2.34,3.61-3.04,6.05-.7,2.44-1.01,5.36-.94,8.76v.11c-.04,1.97.1,3.82.4,5.56.3,1.74.76,3.31,1.37,4.73.61,1.42,1.37,2.69,2.28,3.82.91,1.13,1.96,2.09,3.14,2.87,1.18.79,2.49,1.39,3.92,1.8,1.43.41,2.99.62,4.67.62,1.79,0,3.42-.16,4.89-.48,1.47-.32,2.76-.81,3.87-1.48,1.11-.66,2.06-1.46,2.85-2.39.79-.93,1.42-2.01,1.88-3.22h13.65c-.75,2.58-1.9,4.97-3.44,7.17-1.54,2.2-3.47,4.11-5.78,5.72-2.31,1.61-5,2.87-8.06,3.76-3.06.89-6.51,1.34-10.34,1.34-3.01,0-5.84-.34-8.49-1.02Z"/>
  <path class="cls-1" d="M165.3,37.85h13.65v10.32c.75-1.65,1.69-3.15,2.82-4.51,1.13-1.36,2.43-2.53,3.9-3.49,1.47-.97,3.12-1.71,4.94-2.23,1.83-.52,3.81-.78,5.96-.78h1.02v13.17h-3.38c-2.36,0-4.49.27-6.37.81-1.88.54-3.48,1.42-4.81,2.63-1.33,1.22-2.34,2.81-3.04,4.78-.7,1.97-1.05,4.37-1.05,7.2v28.1h-13.65v-55.99Z"/>
  <path class="cls-1" d="M213.6,94.43c-2.65-.68-5.06-1.65-7.23-2.9-2.17-1.25-4.08-2.76-5.75-4.51-1.67-1.75-3.08-3.73-4.25-5.94-1.16-2.2-2.04-4.6-2.63-7.2-.59-2.6-.89-5.35-.89-8.25v-.11c0-2.97.33-5.77.99-8.38.66-2.61,1.6-5.01,2.82-7.2,1.22-2.18,2.69-4.13,4.43-5.83,1.74-1.7,3.68-3.15,5.83-4.35,2.15-1.2,4.47-2.11,6.96-2.74,2.49-.63,5.11-.94,7.87-.94,3.19,0,6.13.38,8.81,1.13,2.69.75,5.1,1.83,7.25,3.22,2.15,1.4,4.04,3.08,5.67,5.05,1.63,1.97,2.98,4.2,4.06,6.69,1.07,2.49,1.85,5.19,2.34,8.11.48,2.92.67,5.99.56,9.22v.05h-47.07l-.11-9.83h33.05v-.05c-.07-1.33-.28-2.58-.62-3.76-.34-1.18-.82-2.27-1.42-3.28-.61-1-1.33-1.92-2.15-2.74-.82-.82-1.76-1.51-2.82-2.07-1.06-.55-2.21-.99-3.47-1.32-1.25-.32-2.62-.48-4.08-.48-2.26,0-4.33.39-6.21,1.16-1.88.77-3.48,1.95-4.81,3.55-1.33,1.59-2.34,3.61-3.04,6.05-.7,2.44-1.01,5.36-.94,8.76v.11c-.04,1.97.1,3.82.4,5.56.3,1.74.76,3.31,1.37,4.73.61,1.42,1.37,2.69,2.28,3.82.91,1.13,1.96,2.09,3.14,2.87,1.18.79,2.49,1.39,3.92,1.8,1.43.41,2.99.62,4.67.62,1.79,0,3.42-.16,4.89-.48,1.47-.32,2.76-.81,3.87-1.48,1.11-.66,2.06-1.46,2.85-2.39.79-.93,1.42-2.01,1.88-3.22h13.65c-.75,2.58-1.9,4.97-3.44,7.17-1.54,2.2-3.47,4.11-5.78,5.72-2.31,1.61-5,2.87-8.06,3.76-3.06.89-6.51,1.34-10.34,1.34-3.01,0-5.84-.34-8.49-1.02Z"/>
</svg>