<?xml version="1.0" encoding="utf-8"?>
<!-- Generator: Adobe Illustrator 29.4.0, SVG Export Plug-In . SVG Version: 9.03 Build 0)  -->
<svg version="1.1" baseProfile="basic" id="Livello_1"
	 xmlns="http://www.w3.org/2000/svg" xmlns:xlink="http://www.w3.org/1999/xlink" x="0px" y="0px" viewBox="0 0 982.4 381.5"
	 xml:space="preserve">
<style type="text/css">
	.st0{fill:#FFFFFF;}
</style>
<g id="x9wETg_00000103228167987292319420000017409788853267181981_">
	<g>
		<g>
			<path class="st0" d="M518.9,292.3l33,6.5l-1.2,2.4l-20.8,22.7l3.8,33.4l-31.1-14l-30.5,14l4.6-33.5c-0.3-1.5-18.9-19.2-21.5-22.6
				c-0.6-0.8-1.5-1-1.2-2.4l32.6-6.3l15.6-28.5c1.4-0.3,1.6,0.4,2.2,1.3C509.8,272.6,513.9,284.4,518.9,292.3z"/>
			<g>
				<path class="st0" d="M414.6,292.3l33,6.5l-1.2,2.4l-20.8,22.7l3.8,33.4l-31.1-14l-30.5,14l4.6-33.5
					c-0.3-1.5-18.9-19.2-21.5-22.6c-0.6-0.8-1.5-1-1.2-2.4l32.6-6.3l15.6-28.5c1.4-0.3,1.6,0.4,2.2,1.3
					C405.5,272.6,409.6,284.4,414.6,292.3z"/>
				<path class="st0" d="M294.3,264.1l15.6,28.5l32.6,6.3c0.4,1.4-0.6,1.6-1.2,2.4c-2.6,3.4-21.3,21.1-21.5,22.6l3.8,32.7
					c-1.2,1.2-26.4-12.4-30.3-13.2l-30.6,14l3.8-33.4l-20.8-22.8l-1.2-2.4l32.7-6.3c5.4-7.9,9.3-19.8,14.9-27.2
					C292.7,264.5,292.9,263.8,294.3,264.1z"/>
			</g>
			<g>
				<path class="st0" d="M607.2,264.1l15.6,28.5l32.6,6.3c0.4,1.4-0.6,1.6-1.2,2.4c-2.6,3.4-21.3,21.1-21.5,22.6l3.8,32.7
					c-1.2,1.2-26.4-12.4-30.3-13.2l-30.6,14l3.8-33.4l-20.8-22.7l-1.2-2.4l32.7-6.3c5.4-7.9,9.3-19.8,14.9-27.2
					C605.6,264.5,605.8,263.8,607.2,264.1z"/>
				<path class="st0" d="M761.3,298.8c0.5,0.6-4.4,6.3-5.1,7.1c-5.4,6.1-11.7,11.5-16.9,17.9l3.8,32.6c-1.2,1.3-26.7-12.2-30.4-13.4
					c-3.7,1.1-29.2,14.6-30.4,13.4l3.8-32.6c-5.1-6.4-11.5-11.8-16.9-17.9c-0.7-0.8-5.6-6.6-5.1-7.1l31.9-6.4l16.7-29.1l16.7,29.1
					L761.3,298.8z"/>
			</g>
		</g>
		<path class="st0" d="M295.8,132.9H235v-25.3h86.9c7.5,51.4-23.1,95.6-75.5,101.9c-68.9,8.2-124.6-59.1-100.8-125.2
			c21.5-59.7,97.1-82.5,147.7-43.4c8,6.2,6.2,5.7-0.3,13c-1.3,1.5-10.4,10.8-11.2,10.9c-5.4-2.8-9.8-7.1-15.3-9.8
			c-37.4-18.7-83.4,0.2-95.9,40.1c-17.1,54.8,36.1,104.4,89.7,84.1C280.4,171.7,294.9,154.7,295.8,132.9z"/>
		<path class="st0" d="M584.3,149c0,33.7-27.3,61-61,61s-61-27.3-61-61s27.3-61,61-61S584.3,115.3,584.3,149z M520.8,112.6
			c-44.5,3.6-40.9,77.1,6.1,73.2C570.2,182.2,565.8,108.9,520.8,112.6z"/>
		<g>
			<path class="st0" d="M685.3,196.1c-16.3,13.1-33.2,17.1-53.2,9.3c-41.8-16.4-51.1-71.2-17.6-101.7c21.4-19.5,47.4-20.8,69.9-2.3
				c0.1-1.6-0.6-8.7,1.2-8.7h24.1v121.2c0,5.3-4.8,17.7-7.5,22.5c-22.1,40-87.9,34.8-102.3-8.7c7.7-2.1,14.7-6.9,22.4-8.8
				c8.7,15.4,18.5,22.9,37.1,20.4c13.6-1.8,25.9-15.7,25.9-29.4L685.3,196.1L685.3,196.1z M650.4,112.6
				c-41.7,4.9-36.8,78.4,8.4,73.1C699.6,180.9,695.2,107.3,650.4,112.6z"/>
			<g>
				<path class="st0" d="M796.7,166.8c8.7,23.1,38.8,24.2,54.5,7.5c1.8-2,2.8-5.7,4.9-5c1.2,0.4,17.9,11.5,18.4,12.5
					c0.7,1.4-4.4,7.5-5.6,8.7c-31.8,33.8-89.6,18.6-101.2-26.1c-15.9-61.4,62.9-106.3,99.5-50.5c1.7,2.5,10,17.8,8.8,19.7
					L796.7,166.8z M792,147.1l53.7-22.6c-6.7-13.5-23.2-14.7-36.1-9.2C796.8,120.9,791.7,133.7,792,147.1z"/>
				<rect x="728" y="27.9" class="st0" width="26.9" height="177.7"/>
			</g>
		</g>
		<path class="st0" d="M452.5,149c0,33.7-27.3,61-61,61s-61-27.3-61-61s27.3-61,61-61S452.5,115.3,452.5,149z M388.8,112.6
			c-45.3,4.4-39.5,77.8,6.9,73.2C439.1,181.5,433.6,108.2,388.8,112.6z"/>
	</g>
</g>
</svg>
