<?xml version="1.0" encoding="utf-8"?>
<!-- Generator: Adobe Illustrator 29.4.0, SVG Export Plug-In . SVG Version: 9.03 Build 0)  -->
<svg version="1.1" baseProfile="basic" id="Livello_1"
	 xmlns="http://www.w3.org/2000/svg" xmlns:xlink="http://www.w3.org/1999/xlink" x="0px" y="0px" viewBox="0 0 982.4 381.5"
	 xml:space="preserve">
<style type="text/css">
	.st0{fill:#FFFFFF;}
</style>
<g>
	<g>
		<g>
			<g>
				<path class="st0" d="M570.3,218.1h-34.2l-8.2,25h-18.3l34.3-97.5h18.5l34.3,97.5h-18.3L570.3,218.1z M553.2,162.5
					c0,0-2.2,9.6-4.1,15.1l-8.6,26.1H566l-8.7-26.1c-1.8-5.5-3.8-15.1-3.8-15.1H553.2z"/>
			</g>
			<g>
				<path class="st0" d="M623.1,145.6h31.4c10.6,0,15.4,0.8,19.6,2.8c9.8,4.4,15.9,13.7,15.9,26.6c0,11.7-6.2,22.5-16.5,26.7v0.3
					c0,0,1.4,1.4,3.3,4.8l20,36.4H677l-19.4-36.4h-17v36.4h-17.7L623.1,145.6L623.1,145.6L623.1,145.6L623.1,145.6z M656.7,191.3
					c9.5,0,15.4-5.6,15.4-15.4c0-9.3-4-15.1-17.8-15.1h-13.5v30.5H656.7L656.7,191.3z"/>
			</g>
			<g>
				<path class="st0" d="M727.2,145.6h33.2c30.1,0,49.7,17.8,49.7,48.6s-19.6,48.9-49.7,48.9h-33.2V145.6z M759.4,227.8
					c19.8,0,32.4-11.7,32.4-33.6c0-21.7-12.9-33.4-32.4-33.4h-14.6v67L759.4,227.8L759.4,227.8z"/>
			</g>
			<g>
				<path class="st0" d="M841.8,218.1c0,0,10.6,10.3,24.3,10.3c7.4,0,14.2-3.8,14.2-11.8c0-17.5-46-14.4-46-44.4
					c0-16.2,14-28.3,32.7-28.3c19.2,0,29.1,10.4,29.1,10.4l-7.7,14.4c0,0-9.4-8.5-21.6-8.5c-8.2,0-14.7,4.8-14.7,11.7
					c0,17.3,45.8,13,45.8,44.2c0,15.5-11.8,28.6-32.1,28.6c-21.7,0-33.6-13.3-33.6-13.3L841.8,218.1z"/>
			</g>
			<g>
				<path class="st0" d="M370.5,145.6l-16,67.4c-1.2,5.5-1.6,10.3-1.6,10.3h-0.3c-0.1,0-0.3-4.7-1.8-10.3l-17.3-67.4h-15.4
					L300.5,213c-1.5,5.6-1.6,10.3-1.8,10.3h-0.3c0,0-0.4-4.8-1.6-10.3l-11.5-50.5l-8.6,36.8l10.9,43.7H308l15-57.7
					c1.6-6.3,2.5-12.8,2.5-12.8h0.3c0,0,0.8,6.4,2.5,12.8l15,57.7h20.4l25.1-97.5L370.5,145.6L370.5,145.6z"/>
			</g>
			<g>
				<path class="st0" d="M480.5,145.6L464.4,213c-1.2,5.5-1.6,10.3-1.6,10.3h-0.3c-0.1,0-0.3-4.7-1.8-10.3l-17.3-67.4H428L410.5,213
					c-1.5,5.6-1.6,10.3-1.8,10.3h-0.3c0,0-0.4-4.8-1.6-10.3l-11.6-50.7l-8.6,36.8l11,44H418l15-57.7c1.6-6.3,2.5-12.8,2.5-12.8h0.3
					c0,0,0.8,6.4,2.5,12.8l15,57.7h20.5l25.1-97.5H480.5L480.5,145.6z"/>
			</g>
			<g>
				<path class="st0" d="M117.6,218.1H83.4l-8.2,25H56.9l34.3-97.5h18.5l34.3,97.5h-18.3L117.6,218.1z M100.4,162.5
					c0,0-2.2,9.6-4.1,15.1l-8.7,26.1h25.5l-8.7-26.1c-1.8-5.5-3.8-15.1-3.8-15.1H100.4L100.4,162.5z"/>
			</g>
			<g>
				<path class="st0" d="M240.8,213c1.5,5.6,1.6,10.3,1.8,10.3h0.3c0,0,0.4-4.8,1.6-10.3l16.1-67.4h18.3l-25.1,97.5h-20.5l-15-57.7
					c-1.6-6.3-2.5-12.8-2.5-12.8h-0.3c0,0-0.8,6.4-2.5,12.8l-15,57.7h-20.5l-24.4-97.5h18.3l15.4,67.4c1.2,5.5,1.6,10.3,1.6,10.3
					h0.3c0.1,0,0.3-4.7,1.8-10.3l17.6-67.4h15.4L240.8,213z"/>
			</g>
		</g>
		<g>
			<path class="st0" d="M936.2,177.3c9.3,0,16.8,7.5,16.8,17c0,9.6-7.4,17.1-16.8,17.1c-9.2,0-16.6-7.5-16.6-17.1
				C919.7,184.9,927.1,177.3,936.2,177.3z M936.2,209.4c8.3,0,14.6-6.5,14.6-15.1c0-8.5-6.4-15.1-14.6-15.1
				c-8.1,0-14.5,6.6-14.5,15.1C921.8,202.9,928.1,209.4,936.2,209.4z M930.8,184.9h6.2c3.2,0,5.5,2.2,5.5,5.5c0,2.8-1.7,4.6-3.6,5
				v0.1c0,0,0.2,0.2,0.6,1l3.7,7.2h-2.3l-4-7.9h-4.1v7.9h-2L930.8,184.9L930.8,184.9z M936.8,194.1c2.2,0,3.6-1.4,3.6-3.7
				s-1.4-3.6-3.6-3.6h-4v7.3H936.8L936.8,194.1z"/>
		</g>
	</g>
</g>
</svg>
