<?xml version="1.0" encoding="UTF-8"?>
<svg id="Livello_1" xmlns="http://www.w3.org/2000/svg" version="1.1" viewBox="0 0 752.3 223.1">
  <!-- Generator: Adobe Illustrator 29.4.0, SVG Export Plug-In . SVG Version: 2.1.0 Build 152)  -->
  <defs>
    <style>
      .st0 {
        fill="currentColor"
      }
    </style>
  </defs>
  <polygon class="st0" points="39.3 124.8 136.6 124.8 136.6 91.6 39.3 91.6 39.3 33.2 147.4 33.2 147.4 0 0 0 0 218.7 147.9 218.7 147.9 185.5 39.3 185.5 39.3 124.8"/>
  <path class="st0" d="M215.3,187.1c-3.1-.6-5.7-1.9-7.7-3.6-2-1.8-3.6-4.3-4.6-7.4-1-3.2-1.6-7.3-1.6-12.4v-69.3h34.5v-30.7h-34.5V22.8h-37.8v40.9h-23.2v30.7h23.2v74.5c0,9,1,16.7,3,23s5.1,11.4,9.4,15.4c4.3,4,9.9,6.9,16.9,8.7,6.9,1.8,15.4,2.8,25.3,2.8h16.8v-30.6h-8.8c-4.2,0-7.8-.3-10.9-1h0Z"/>
  <path class="st0" d="M382.8,103.3c-3-6.9-6.7-13.1-11.2-18.5s-9.7-10.1-15.7-14-12.6-6.8-20.1-8.9c-7.4-2.1-15.6-3.1-24.4-3.1s-14.9.9-21.8,2.6c-6.9,1.7-13.3,4.3-19.3,7.6-6,3.3-11.3,7.3-16.1,12.1-4.8,4.7-8.9,10.1-12.3,16.1-3.4,6.1-6,12.7-7.8,19.9-1.8,7.2-2.8,15-2.8,23.2v.3c0,8,.8,15.6,2.4,22.8,1.6,7.2,4.1,13.8,7.3,19.9,3.2,6.1,7.1,11.6,11.8,16.4,4.6,4.9,9.9,9,15.9,12.5s12.7,6.1,20,8,15.2,2.8,23.5,2.8,20.2-1.2,28.6-3.7c8.5-2.5,15.9-5.9,22.3-10.4s11.7-9.7,16-15.8,7.4-12.7,9.5-19.9h-37.8c-1.3,3.4-3,6.4-5.2,8.9s-4.8,4.8-7.9,6.6-6.6,3.2-10.7,4.1c-4.1.9-8.6,1.3-13.5,1.3s-9-.6-12.9-1.7c-4-1.1-7.6-2.8-10.9-5s-6.2-4.8-8.7-8c-2.5-3.1-4.6-6.6-6.3-10.6-1.7-3.9-3-8.3-3.8-13.1-.3-1.5-.5-3-.6-4.5h120.5c.3-9.1-.2-17.6-1.6-25.7-1.3-8.1-3.5-15.6-6.5-22.5h0v.3ZM351.7,124.2h-81c.4-2.9,1-5.6,1.7-8.2,1.9-6.7,4.7-12.3,8.4-16.7,3.7-4.4,8.1-7.7,13.3-9.8,5.2-2.1,10.9-3.2,17.2-3.2s7.8.4,11.3,1.3,6.7,2.1,9.6,3.6,5.5,3.4,7.8,5.7c2.3,2.3,4.3,4.8,6,7.6s3,5.8,3.9,9.1c.9,3.3,1.5,6.8,1.7,10.4v.2h.1Z"/>
  <path class="st0" d="M626,103.3c-3-6.9-6.7-13.1-11.2-18.5s-9.7-10.1-15.7-14-12.6-6.8-20.1-8.9c-7.4-2.1-15.6-3.1-24.4-3.1s-14.9.9-21.8,2.6c-6.9,1.7-13.3,4.3-19.3,7.6-6,3.3-11.3,7.3-16.1,12.1-3.7,3.6-6.9,7.6-9.7,11.9v-31.2h-2.8c-6,0-11.5.7-16.5,2.2-5.1,1.4-9.6,3.5-13.7,6.2s-7.7,5.9-10.8,9.7c-3.1,3.8-5.7,7.9-7.8,12.5v-28.6h-37.8v155h37.8v-77.8c0-7.8,1-14.5,2.9-19.9s4.7-9.9,8.4-13.2c3.7-3.4,8.1-5.8,13.3-7.3,5.2-1.5,11.1-2.2,17.6-2.2h6.3c-3.1,5.8-5.5,12.1-7.2,18.9-1.8,7.2-2.8,15-2.8,23.2v.3c0,8,.8,15.6,2.5,22.8,1.6,7.2,4.1,13.8,7.3,19.9s7.1,11.6,11.8,16.4,9.9,9,15.9,12.5c6,3.5,12.7,6.1,20,8s15.2,2.8,23.5,2.8,20.2-1.2,28.6-3.7c8.5-2.5,15.9-5.9,22.3-10.4s11.7-9.7,16-15.8,7.4-12.7,9.5-19.9h-37.8c-1.3,3.4-3,6.4-5.2,8.9s-4.8,4.8-7.9,6.6c-3.1,1.8-6.7,3.2-10.7,4.1-4.1.9-8.6,1.3-13.5,1.3s-9-.6-12.9-1.7c-4-1.1-7.6-2.8-10.9-5-3.3-2.2-6.2-4.8-8.7-8-2.5-3.1-4.6-6.6-6.3-10.6-1.7-3.9-3-8.3-3.8-13.1-.3-1.5-.5-3-.6-4.5h120.5c.3-9.1-.2-17.6-1.6-25.7-1.3-8.1-3.5-15.6-6.5-22.5h0ZM594.9,124.2h-81c.4-2.9,1-5.6,1.7-8.2,1.9-6.7,4.7-12.3,8.4-16.7,3.7-4.4,8.1-7.7,13.3-9.8,5.2-2.1,10.9-3.2,17.2-3.2s7.8.4,11.3,1.3,6.7,2.1,9.6,3.6c2.9,1.5,5.5,3.4,7.8,5.7,2.3,2.3,4.3,4.8,6,7.6s3,5.8,3.9,9.1c.9,3.3,1.5,6.8,1.7,10.4v.2h0Z"/>
  <path class="st0" d="M651,75.7c-.8-.6-1.7-1.1-2.7-1.4-1-.4-2.1-.7-3.3-.9l-3.5-.8c-.8-.2-1.5-.4-2.2-.7s-1.2-.7-1.7-1.1-.8-.9-1.1-1.5c-.2-.6-.4-1.2-.4-2h0c0-.6,0-1.1.2-1.6s.4-.9.7-1.3.7-.7,1.1-1c.4-.3.9-.5,1.4-.7s1-.3,1.6-.4,1.1,0,1.7,0c1,0,1.9,0,2.7.3s1.5.6,2.2,1c.6.5,1.2,1.1,1.6,1.8s.8,1.6,1,2.5h2.2c-.2-1.2-.6-2.3-1.1-3.2-.5-.9-1.2-1.7-2-2.3s-1.8-1.1-2.8-1.4c-1.1-.3-2.3-.5-3.6-.5s-1.6,0-2.4.2c-.8,0-1.5.3-2.2.6s-1.3.6-1.8,1-1,.8-1.4,1.4c-.4.5-.7,1.1-.9,1.7s-.3,1.3-.3,2h0c0,1.1.2,2.1.5,2.9s.8,1.5,1.5,2.1c.6.6,1.4,1.1,2.2,1.4s1.8.7,2.8.9l3.5.8c.9.2,1.8.5,2.6.8s1.5.7,2.2,1.1c.6.4,1.1,1,1.5,1.6.4.7.5,1.4.5,2.4h0c0,.7,0,1.3-.3,1.8s-.5,1-.8,1.4-.7.8-1.2,1.1c-.5.3-1,.5-1.5.7s-1.1.3-1.8.4-1.3,0-1.9,0c-1.1,0-2.2,0-3.1-.4-.9-.2-1.8-.7-2.5-1.2s-1.3-1.2-1.8-2.1-.8-1.8-1-3h-2.2c.2,1.4.6,2.6,1.2,3.6.6,1,1.3,1.9,2.2,2.6s2,1.2,3.2,1.6,2.5.5,4,.5,1.8,0,2.6-.2,1.6-.4,2.3-.6c.7-.3,1.4-.6,2-1.1.6-.4,1.1-.9,1.5-1.5s.7-1.2,1-1.9c.2-.7.3-1.5.3-2.3h0c0-1.3-.2-2.3-.7-3.1-.5-.8-1.1-1.5-1.8-2.1h0Z"/>
  <polygon class="st0" points="651 62.5 661.1 62.5 661.1 88 663.2 88 663.2 62.5 673.3 62.5 673.3 60.6 651 60.6 651 62.5"/>
  <path class="st0" d="M691.8,65.6v11.9c0,1.6-.2,3-.5,4.1s-.8,2.1-1.5,2.8c-.7.7-1.5,1.3-2.5,1.6-1,.3-2.2.5-3.5.5s-2.5-.2-3.5-.5-1.8-.9-2.5-1.6-1.2-1.7-1.5-2.8c-.3-1.1-.5-2.5-.5-4.1v-16.9h-2.1v16.9c0,1.9.2,3.6.7,5,.4,1.4,1.1,2.5,1.9,3.4.9.9,1.9,1.5,3.2,1.9s2.8.6,4.4.6,3.2-.2,4.4-.6c1.3-.4,2.3-1.1,3.2-1.9.9-.9,1.5-2,2-3.4.4-1.4.7-3.1.7-5v-16.9h-2.2v5h-.2Z"/>
  <path class="st0" d="M717.3,66.6c-.6-1-1.4-1.9-2.3-2.7-.9-.8-1.9-1.4-3-1.9s-2.3-.9-3.6-1.1c-1.3-.2-2.6-.4-4-.4h-6.9v27.4h6.9c1.4,0,2.8,0,4-.4s2.5-.6,3.6-1.1,2.1-1.1,3-1.9,1.7-1.6,2.3-2.6,1.1-2.2,1.5-3.4.5-2.7.5-4.2h0c0-1.6-.2-3-.5-4.3s-.8-2.4-1.5-3.4h0ZM717,74.4c0,1.4-.2,2.7-.5,3.8-.3,1.1-.8,2.1-1.3,3-.6.9-1.2,1.6-2,2.3-.8.6-1.7,1.1-2.6,1.5s-2,.7-3,.9c-1.1.2-2.2.3-3.3.3h-4.7v-23.7h4.7c1.1,0,2.2,0,3.3.3,1.1.2,2.1.5,3,.9s1.8.9,2.6,1.6,1.5,1.4,2,2.3c.6.9,1,1.9,1.3,3s.5,2.4.5,3.8h0Z"/>
  <rect class="st0" x="721.3" y="60.6" width="2.1" height="27.4"/>
  <path class="st0" d="M751.8,70.4c-.3-1.2-.7-2.4-1.2-3.4s-1.2-2-2-2.8c-.8-.8-1.7-1.6-2.7-2.2-1-.6-2.1-1-3.3-1.4s-2.4-.5-3.8-.5c-2,0-3.8.3-5.5,1.1-1.7.7-3,1.7-4.2,3s-2.1,2.8-2.7,4.5c-.6,1.7-1,3.6-1,5.7h0c0,1.4.2,2.7.4,3.9.3,1.2.7,2.4,1.2,3.4s1.2,2,2,2.8,1.7,1.6,2.7,2.2,2.1,1.1,3.3,1.4,2.4.5,3.8.5c2,0,3.8-.3,5.5-1.1,1.7-.7,3-1.7,4.2-3s2.1-2.8,2.7-4.5c.6-1.7,1-3.6,1-5.7h0c0-1.4,0-2.7-.4-3.9h0ZM750,74.4c0,1.2,0,2.3-.3,3.4s-.6,2.1-1,3c-.5.9-1,1.7-1.7,2.5-.7.7-1.4,1.3-2.2,1.9s-1.7.9-2.7,1.2c-1,.3-2,.4-3.2.4s-2.2,0-3.2-.4-1.9-.7-2.7-1.2-1.6-1.1-2.2-1.9-1.2-1.6-1.6-2.5c-.5-.9-.8-1.9-1-3s-.3-2.2-.3-3.4h0c0-1.2,0-2.4.3-3.4.2-1.1.6-2.1,1-3,.5-.9,1-1.7,1.6-2.4.7-.7,1.4-1.3,2.2-1.9.8-.5,1.7-.9,2.7-1.2s2-.4,3.2-.4,2.2,0,3.2.4c1,.3,1.9.7,2.7,1.2s1.6,1.1,2.2,1.9c.7.7,1.2,1.5,1.7,2.4s.8,1.9,1,3,.3,2.2.3,3.4h0Z"/>
</svg>